<svg xmlns="http://www.w3.org/2000/svg" viewBox="0 0 40 40" shape-rendering="crispEdges">
<rect width="40" height="40" rx="7" fill="#0f380f"/>
<rect x="1.5" y="1.5" width="37" height="37" rx="6" fill="none" stroke="#8bac0f" stroke-width="1.5"/>
<rect x="11" y="5" width="1" height="1" fill="#306230"/>
<rect x="28" y="5" width="1" height="1" fill="#306230"/>
<rect x="11" y="6" width="2" height="1" fill="#306230"/>
<rect x="27" y="6" width="2" height="1" fill="#306230"/>
<rect x="11" y="7" width="1" height="1" fill="#306230"/>
<rect x="12" y="7" width="1" height="1" fill="#8bac0f"/>
<rect x="13" y="7" width="1" height="1" fill="#306230"/>
<rect x="26" y="7" width="1" height="1" fill="#306230"/>
<rect x="27" y="7" width="1" height="1" fill="#8bac0f"/>
<rect x="28" y="7" width="1" height="1" fill="#306230"/>
<rect x="10" y="8" width="1" height="1" fill="#306230"/>
<rect x="11" y="8" width="1" height="1" fill="#9bbc0f"/>
<rect x="12" y="8" width="2" height="1" fill="#8bac0f"/>
<rect x="16" y="8" width="8" height="1" fill="#306230"/>
<rect x="26" y="8" width="2" height="1" fill="#8bac0f"/>
<rect x="28" y="8" width="1" height="1" fill="#9bbc0f"/>
<rect x="29" y="8" width="1" height="1" fill="#306230"/>
<rect x="10" y="9" width="1" height="1" fill="#306230"/>
<rect x="11" y="9" width="1" height="1" fill="#9bbc0f"/>
<rect x="12" y="9" width="2" height="1" fill="#8bac0f"/>
<rect x="14" y="9" width="2" height="1" fill="#306230"/>
<rect x="16" y="9" width="8" height="1" fill="#9bbc0f"/>
<rect x="24" y="9" width="2" height="1" fill="#306230"/>
<rect x="26" y="9" width="2" height="1" fill="#8bac0f"/>
<rect x="28" y="9" width="1" height="1" fill="#9bbc0f"/>
<rect x="29" y="9" width="1" height="1" fill="#306230"/>
<rect x="10" y="10" width="1" height="1" fill="#306230"/>
<rect x="11" y="10" width="4" height="1" fill="#8bac0f"/>
<rect x="15" y="10" width="1" height="1" fill="#306230"/>
<rect x="16" y="10" width="8" height="1" fill="#9bbc0f"/>
<rect x="24" y="10" width="1" height="1" fill="#306230"/>
<rect x="25" y="10" width="4" height="1" fill="#8bac0f"/>
<rect x="29" y="10" width="1" height="1" fill="#306230"/>
<rect x="10" y="11" width="1" height="1" fill="#306230"/>
<rect x="11" y="11" width="4" height="1" fill="#8bac0f"/>
<rect x="15" y="11" width="1" height="1" fill="#9bbc0f"/>
<rect x="16" y="11" width="1" height="1" fill="#306230"/>
<rect x="17" y="11" width="6" height="1" fill="#9bbc0f"/>
<rect x="23" y="11" width="1" height="1" fill="#306230"/>
<rect x="24" y="11" width="1" height="1" fill="#9bbc0f"/>
<rect x="25" y="11" width="4" height="1" fill="#8bac0f"/>
<rect x="29" y="11" width="1" height="1" fill="#306230"/>
<rect x="9" y="12" width="1" height="1" fill="#306230"/>
<rect x="10" y="12" width="1" height="1" fill="#9bbc0f"/>
<rect x="11" y="12" width="5" height="1" fill="#8bac0f"/>
<rect x="16" y="12" width="1" height="1" fill="#306230"/>
<rect x="17" y="12" width="6" height="1" fill="#9bbc0f"/>
<rect x="23" y="12" width="1" height="1" fill="#306230"/>
<rect x="24" y="12" width="5" height="1" fill="#8bac0f"/>
<rect x="29" y="12" width="1" height="1" fill="#9bbc0f"/>
<rect x="30" y="12" width="1" height="1" fill="#306230"/>
<rect x="9" y="13" width="9" height="1" fill="#306230"/>
<rect x="18" y="13" width="4" height="1" fill="#9bbc0f"/>
<rect x="22" y="13" width="9" height="1" fill="#306230"/>
<rect x="8" y="14" width="1" height="1" fill="#306230"/>
<rect x="9" y="14" width="6" height="1" fill="#9bbc0f"/>
<rect x="15" y="14" width="1" height="1" fill="#0f380f"/>
<rect x="16" y="14" width="8" height="1" fill="#9bbc0f"/>
<rect x="24" y="14" width="1" height="1" fill="#0f380f"/>
<rect x="25" y="14" width="6" height="1" fill="#9bbc0f"/>
<rect x="31" y="14" width="1" height="1" fill="#306230"/>
<rect x="8" y="15" width="1" height="1" fill="#306230"/>
<rect x="9" y="15" width="5" height="1" fill="#9bbc0f"/>
<rect x="14" y="15" width="2" height="1" fill="#c7e06a"/>
<rect x="16" y="15" width="1" height="1" fill="#0f380f"/>
<rect x="17" y="15" width="6" height="1" fill="#9bbc0f"/>
<rect x="23" y="15" width="2" height="1" fill="#c7e06a"/>
<rect x="25" y="15" width="1" height="1" fill="#0f380f"/>
<rect x="26" y="15" width="5" height="1" fill="#9bbc0f"/>
<rect x="31" y="15" width="1" height="1" fill="#306230"/>
<rect x="7" y="16" width="1" height="1" fill="#306230"/>
<rect x="8" y="16" width="5" height="1" fill="#9bbc0f"/>
<rect x="13" y="16" width="5" height="1" fill="#0f380f"/>
<rect x="18" y="16" width="4" height="1" fill="#9bbc0f"/>
<rect x="22" y="16" width="5" height="1" fill="#0f380f"/>
<rect x="27" y="16" width="5" height="1" fill="#9bbc0f"/>
<rect x="32" y="16" width="1" height="1" fill="#306230"/>
<rect x="7" y="17" width="1" height="1" fill="#306230"/>
<rect x="8" y="17" width="5" height="1" fill="#9bbc0f"/>
<rect x="13" y="17" width="5" height="1" fill="#0f380f"/>
<rect x="18" y="17" width="4" height="1" fill="#9bbc0f"/>
<rect x="22" y="17" width="5" height="1" fill="#0f380f"/>
<rect x="27" y="17" width="5" height="1" fill="#9bbc0f"/>
<rect x="32" y="17" width="1" height="1" fill="#306230"/>
<rect x="7" y="18" width="1" height="1" fill="#306230"/>
<rect x="8" y="18" width="5" height="1" fill="#9bbc0f"/>
<rect x="13" y="18" width="5" height="1" fill="#0f380f"/>
<rect x="18" y="18" width="4" height="1" fill="#9bbc0f"/>
<rect x="22" y="18" width="5" height="1" fill="#0f380f"/>
<rect x="27" y="18" width="5" height="1" fill="#9bbc0f"/>
<rect x="32" y="18" width="1" height="1" fill="#306230"/>
<rect x="6" y="19" width="1" height="1" fill="#8bac0f"/>
<rect x="7" y="19" width="1" height="1" fill="#306230"/>
<rect x="8" y="19" width="5" height="1" fill="#9bbc0f"/>
<rect x="13" y="19" width="1" height="1" fill="#0f380f"/>
<rect x="14" y="19" width="1" height="1" fill="#8bac0f"/>
<rect x="15" y="19" width="3" height="1" fill="#0f380f"/>
<rect x="18" y="19" width="4" height="1" fill="#9bbc0f"/>
<rect x="22" y="19" width="1" height="1" fill="#0f380f"/>
<rect x="23" y="19" width="1" height="1" fill="#8bac0f"/>
<rect x="24" y="19" width="3" height="1" fill="#0f380f"/>
<rect x="27" y="19" width="5" height="1" fill="#9bbc0f"/>
<rect x="32" y="19" width="1" height="1" fill="#306230"/>
<rect x="33" y="19" width="1" height="1" fill="#8bac0f"/>
<rect x="7" y="20" width="1" height="1" fill="#306230"/>
<rect x="8" y="20" width="6" height="1" fill="#9bbc0f"/>
<rect x="14" y="20" width="3" height="1" fill="#0f380f"/>
<rect x="17" y="20" width="6" height="1" fill="#9bbc0f"/>
<rect x="23" y="20" width="3" height="1" fill="#0f380f"/>
<rect x="26" y="20" width="6" height="1" fill="#9bbc0f"/>
<rect x="32" y="20" width="1" height="1" fill="#306230"/>
<rect x="7" y="21" width="1" height="1" fill="#306230"/>
<rect x="8" y="21" width="2" height="1" fill="#9bbc0f"/>
<rect x="10" y="21" width="3" height="1" fill="#c7e06a"/>
<rect x="13" y="21" width="2" height="1" fill="#9bbc0f"/>
<rect x="15" y="21" width="1" height="1" fill="#0f380f"/>
<rect x="16" y="21" width="8" height="1" fill="#9bbc0f"/>
<rect x="24" y="21" width="1" height="1" fill="#0f380f"/>
<rect x="25" y="21" width="2" height="1" fill="#9bbc0f"/>
<rect x="27" y="21" width="3" height="1" fill="#c7e06a"/>
<rect x="30" y="21" width="2" height="1" fill="#9bbc0f"/>
<rect x="32" y="21" width="1" height="1" fill="#306230"/>
<rect x="7" y="22" width="1" height="1" fill="#306230"/>
<rect x="8" y="22" width="1" height="1" fill="#9bbc0f"/>
<rect x="9" y="22" width="5" height="1" fill="#c7e06a"/>
<rect x="14" y="22" width="5" height="1" fill="#9bbc0f"/>
<rect x="19" y="22" width="3" height="1" fill="#c7e06a"/>
<rect x="22" y="22" width="4" height="1" fill="#9bbc0f"/>
<rect x="26" y="22" width="5" height="1" fill="#c7e06a"/>
<rect x="31" y="22" width="1" height="1" fill="#9bbc0f"/>
<rect x="32" y="22" width="1" height="1" fill="#306230"/>
<rect x="8" y="23" width="1" height="1" fill="#306230"/>
<rect x="9" y="23" width="1" height="1" fill="#9bbc0f"/>
<rect x="10" y="23" width="3" height="1" fill="#c7e06a"/>
<rect x="13" y="23" width="7" height="1" fill="#9bbc0f"/>
<rect x="20" y="23" width="1" height="1" fill="#c7e06a"/>
<rect x="21" y="23" width="6" height="1" fill="#9bbc0f"/>
<rect x="27" y="23" width="3" height="1" fill="#c7e06a"/>
<rect x="30" y="23" width="1" height="1" fill="#9bbc0f"/>
<rect x="31" y="23" width="1" height="1" fill="#306230"/>
<rect x="8" y="24" width="1" height="1" fill="#306230"/>
<rect x="9" y="24" width="8" height="1" fill="#9bbc0f"/>
<rect x="17" y="24" width="1" height="1" fill="#306230"/>
<rect x="18" y="24" width="2" height="1" fill="#9bbc0f"/>
<rect x="20" y="24" width="1" height="1" fill="#c7e06a"/>
<rect x="21" y="24" width="2" height="1" fill="#9bbc0f"/>
<rect x="23" y="24" width="1" height="1" fill="#306230"/>
<rect x="24" y="24" width="7" height="1" fill="#9bbc0f"/>
<rect x="31" y="24" width="1" height="1" fill="#306230"/>
<rect x="9" y="25" width="1" height="1" fill="#306230"/>
<rect x="10" y="25" width="8" height="1" fill="#9bbc0f"/>
<rect x="18" y="25" width="2" height="1" fill="#306230"/>
<rect x="20" y="25" width="1" height="1" fill="#9bbc0f"/>
<rect x="21" y="25" width="2" height="1" fill="#306230"/>
<rect x="23" y="25" width="7" height="1" fill="#9bbc0f"/>
<rect x="30" y="25" width="1" height="1" fill="#306230"/>
<rect x="10" y="26" width="1" height="1" fill="#306230"/>
<rect x="11" y="26" width="18" height="1" fill="#9bbc0f"/>
<rect x="29" y="26" width="1" height="1" fill="#306230"/>
<rect x="11" y="27" width="1" height="1" fill="#306230"/>
<rect x="12" y="27" width="16" height="1" fill="#9bbc0f"/>
<rect x="28" y="27" width="1" height="1" fill="#306230"/>
<rect x="12" y="28" width="2" height="1" fill="#306230"/>
<rect x="14" y="28" width="12" height="1" fill="#9bbc0f"/>
<rect x="26" y="28" width="2" height="1" fill="#306230"/>
<rect x="14" y="29" width="2" height="1" fill="#306230"/>
<rect x="16" y="29" width="8" height="1" fill="#9bbc0f"/>
<rect x="24" y="29" width="2" height="1" fill="#306230"/>
<rect x="16" y="30" width="8" height="1" fill="#306230"/>
</svg>
