<svg xmlns="http://www.w3.org/2000/svg" viewBox="0 0 418 112" shape-rendering="crispEdges">
<rect x="31" y="11" width="3" height="3" fill="#306230"/>
<rect x="82" y="11" width="3" height="3" fill="#306230"/>
<rect x="31" y="14" width="6" height="3" fill="#306230"/>
<rect x="79" y="14" width="6" height="3" fill="#306230"/>
<rect x="31" y="17" width="3" height="3" fill="#306230"/>
<rect x="34" y="17" width="3" height="3" fill="#8bac0f"/>
<rect x="37" y="17" width="3" height="3" fill="#306230"/>
<rect x="76" y="17" width="3" height="3" fill="#306230"/>
<rect x="79" y="17" width="3" height="3" fill="#8bac0f"/>
<rect x="82" y="17" width="3" height="3" fill="#306230"/>
<rect x="28" y="20" width="3" height="3" fill="#306230"/>
<rect x="31" y="20" width="3" height="3" fill="#9bbc0f"/>
<rect x="34" y="20" width="6" height="3" fill="#8bac0f"/>
<rect x="46" y="20" width="24" height="3" fill="#306230"/>
<rect x="76" y="20" width="6" height="3" fill="#8bac0f"/>
<rect x="82" y="20" width="3" height="3" fill="#9bbc0f"/>
<rect x="85" y="20" width="3" height="3" fill="#306230"/>
<rect x="28" y="23" width="3" height="3" fill="#306230"/>
<rect x="31" y="23" width="3" height="3" fill="#9bbc0f"/>
<rect x="34" y="23" width="6" height="3" fill="#8bac0f"/>
<rect x="40" y="23" width="6" height="3" fill="#306230"/>
<rect x="46" y="23" width="24" height="3" fill="#9bbc0f"/>
<rect x="70" y="23" width="6" height="3" fill="#306230"/>
<rect x="76" y="23" width="6" height="3" fill="#8bac0f"/>
<rect x="82" y="23" width="3" height="3" fill="#9bbc0f"/>
<rect x="85" y="23" width="3" height="3" fill="#306230"/>
<rect x="28" y="26" width="3" height="3" fill="#306230"/>
<rect x="31" y="26" width="12" height="3" fill="#8bac0f"/>
<rect x="43" y="26" width="3" height="3" fill="#306230"/>
<rect x="46" y="26" width="24" height="3" fill="#9bbc0f"/>
<rect x="70" y="26" width="3" height="3" fill="#306230"/>
<rect x="73" y="26" width="12" height="3" fill="#8bac0f"/>
<rect x="85" y="26" width="3" height="3" fill="#306230"/>
<rect x="28" y="29" width="3" height="3" fill="#306230"/>
<rect x="31" y="29" width="12" height="3" fill="#8bac0f"/>
<rect x="43" y="29" width="3" height="3" fill="#9bbc0f"/>
<rect x="46" y="29" width="3" height="3" fill="#306230"/>
<rect x="49" y="29" width="18" height="3" fill="#9bbc0f"/>
<rect x="67" y="29" width="3" height="3" fill="#306230"/>
<rect x="70" y="29" width="3" height="3" fill="#9bbc0f"/>
<rect x="73" y="29" width="12" height="3" fill="#8bac0f"/>
<rect x="85" y="29" width="3" height="3" fill="#306230"/>
<rect x="25" y="32" width="3" height="3" fill="#306230"/>
<rect x="28" y="32" width="3" height="3" fill="#9bbc0f"/>
<rect x="31" y="32" width="15" height="3" fill="#8bac0f"/>
<rect x="46" y="32" width="3" height="3" fill="#306230"/>
<rect x="49" y="32" width="18" height="3" fill="#9bbc0f"/>
<rect x="67" y="32" width="3" height="3" fill="#306230"/>
<rect x="70" y="32" width="15" height="3" fill="#8bac0f"/>
<rect x="85" y="32" width="3" height="3" fill="#9bbc0f"/>
<rect x="88" y="32" width="3" height="3" fill="#306230"/>
<rect x="25" y="35" width="27" height="3" fill="#306230"/>
<rect x="52" y="35" width="12" height="3" fill="#9bbc0f"/>
<rect x="64" y="35" width="27" height="3" fill="#306230"/>
<rect x="22" y="38" width="3" height="3" fill="#306230"/>
<rect x="25" y="38" width="18" height="3" fill="#9bbc0f"/>
<rect x="43" y="38" width="3" height="3" fill="#0f380f"/>
<rect x="46" y="38" width="24" height="3" fill="#9bbc0f"/>
<rect x="70" y="38" width="3" height="3" fill="#0f380f"/>
<rect x="73" y="38" width="18" height="3" fill="#9bbc0f"/>
<rect x="91" y="38" width="3" height="3" fill="#306230"/>
<rect x="22" y="41" width="3" height="3" fill="#306230"/>
<rect x="25" y="41" width="15" height="3" fill="#9bbc0f"/>
<rect x="40" y="41" width="6" height="3" fill="#c7e06a"/>
<rect x="46" y="41" width="3" height="3" fill="#0f380f"/>
<rect x="49" y="41" width="18" height="3" fill="#9bbc0f"/>
<rect x="67" y="41" width="6" height="3" fill="#c7e06a"/>
<rect x="73" y="41" width="3" height="3" fill="#0f380f"/>
<rect x="76" y="41" width="15" height="3" fill="#9bbc0f"/>
<rect x="91" y="41" width="3" height="3" fill="#306230"/>
<rect x="19" y="44" width="3" height="3" fill="#306230"/>
<rect x="22" y="44" width="15" height="3" fill="#9bbc0f"/>
<rect x="37" y="44" width="15" height="3" fill="#0f380f"/>
<rect x="52" y="44" width="12" height="3" fill="#9bbc0f"/>
<rect x="64" y="44" width="15" height="3" fill="#0f380f"/>
<rect x="79" y="44" width="15" height="3" fill="#9bbc0f"/>
<rect x="94" y="44" width="3" height="3" fill="#306230"/>
<rect x="19" y="47" width="3" height="3" fill="#306230"/>
<rect x="22" y="47" width="15" height="3" fill="#9bbc0f"/>
<rect x="37" y="47" width="15" height="3" fill="#0f380f"/>
<rect x="52" y="47" width="12" height="3" fill="#9bbc0f"/>
<rect x="64" y="47" width="15" height="3" fill="#0f380f"/>
<rect x="79" y="47" width="15" height="3" fill="#9bbc0f"/>
<rect x="94" y="47" width="3" height="3" fill="#306230"/>
<rect x="19" y="50" width="3" height="3" fill="#306230"/>
<rect x="22" y="50" width="15" height="3" fill="#9bbc0f"/>
<rect x="37" y="50" width="15" height="3" fill="#0f380f"/>
<rect x="52" y="50" width="12" height="3" fill="#9bbc0f"/>
<rect x="64" y="50" width="15" height="3" fill="#0f380f"/>
<rect x="79" y="50" width="15" height="3" fill="#9bbc0f"/>
<rect x="94" y="50" width="3" height="3" fill="#306230"/>
<rect x="16" y="53" width="3" height="3" fill="#8bac0f"/>
<rect x="19" y="53" width="3" height="3" fill="#306230"/>
<rect x="22" y="53" width="15" height="3" fill="#9bbc0f"/>
<rect x="37" y="53" width="3" height="3" fill="#0f380f"/>
<rect x="40" y="53" width="3" height="3" fill="#8bac0f"/>
<rect x="43" y="53" width="9" height="3" fill="#0f380f"/>
<rect x="52" y="53" width="12" height="3" fill="#9bbc0f"/>
<rect x="64" y="53" width="3" height="3" fill="#0f380f"/>
<rect x="67" y="53" width="3" height="3" fill="#8bac0f"/>
<rect x="70" y="53" width="9" height="3" fill="#0f380f"/>
<rect x="79" y="53" width="15" height="3" fill="#9bbc0f"/>
<rect x="94" y="53" width="3" height="3" fill="#306230"/>
<rect x="97" y="53" width="3" height="3" fill="#8bac0f"/>
<rect x="19" y="56" width="3" height="3" fill="#306230"/>
<rect x="22" y="56" width="18" height="3" fill="#9bbc0f"/>
<rect x="40" y="56" width="9" height="3" fill="#0f380f"/>
<rect x="49" y="56" width="18" height="3" fill="#9bbc0f"/>
<rect x="67" y="56" width="9" height="3" fill="#0f380f"/>
<rect x="76" y="56" width="18" height="3" fill="#9bbc0f"/>
<rect x="94" y="56" width="3" height="3" fill="#306230"/>
<rect x="19" y="59" width="3" height="3" fill="#306230"/>
<rect x="22" y="59" width="6" height="3" fill="#9bbc0f"/>
<rect x="28" y="59" width="9" height="3" fill="#c7e06a"/>
<rect x="37" y="59" width="6" height="3" fill="#9bbc0f"/>
<rect x="43" y="59" width="3" height="3" fill="#0f380f"/>
<rect x="46" y="59" width="24" height="3" fill="#9bbc0f"/>
<rect x="70" y="59" width="3" height="3" fill="#0f380f"/>
<rect x="73" y="59" width="6" height="3" fill="#9bbc0f"/>
<rect x="79" y="59" width="9" height="3" fill="#c7e06a"/>
<rect x="88" y="59" width="6" height="3" fill="#9bbc0f"/>
<rect x="94" y="59" width="3" height="3" fill="#306230"/>
<rect x="19" y="62" width="3" height="3" fill="#306230"/>
<rect x="22" y="62" width="3" height="3" fill="#9bbc0f"/>
<rect x="25" y="62" width="15" height="3" fill="#c7e06a"/>
<rect x="40" y="62" width="15" height="3" fill="#9bbc0f"/>
<rect x="55" y="62" width="9" height="3" fill="#c7e06a"/>
<rect x="64" y="62" width="12" height="3" fill="#9bbc0f"/>
<rect x="76" y="62" width="15" height="3" fill="#c7e06a"/>
<rect x="91" y="62" width="3" height="3" fill="#9bbc0f"/>
<rect x="94" y="62" width="3" height="3" fill="#306230"/>
<rect x="22" y="65" width="3" height="3" fill="#306230"/>
<rect x="25" y="65" width="3" height="3" fill="#9bbc0f"/>
<rect x="28" y="65" width="9" height="3" fill="#c7e06a"/>
<rect x="37" y="65" width="21" height="3" fill="#9bbc0f"/>
<rect x="58" y="65" width="3" height="3" fill="#c7e06a"/>
<rect x="61" y="65" width="18" height="3" fill="#9bbc0f"/>
<rect x="79" y="65" width="9" height="3" fill="#c7e06a"/>
<rect x="88" y="65" width="3" height="3" fill="#9bbc0f"/>
<rect x="91" y="65" width="3" height="3" fill="#306230"/>
<rect x="22" y="68" width="3" height="3" fill="#306230"/>
<rect x="25" y="68" width="24" height="3" fill="#9bbc0f"/>
<rect x="49" y="68" width="3" height="3" fill="#306230"/>
<rect x="52" y="68" width="6" height="3" fill="#9bbc0f"/>
<rect x="58" y="68" width="3" height="3" fill="#c7e06a"/>
<rect x="61" y="68" width="6" height="3" fill="#9bbc0f"/>
<rect x="67" y="68" width="3" height="3" fill="#306230"/>
<rect x="70" y="68" width="21" height="3" fill="#9bbc0f"/>
<rect x="91" y="68" width="3" height="3" fill="#306230"/>
<rect x="25" y="71" width="3" height="3" fill="#306230"/>
<rect x="28" y="71" width="24" height="3" fill="#9bbc0f"/>
<rect x="52" y="71" width="6" height="3" fill="#306230"/>
<rect x="58" y="71" width="3" height="3" fill="#9bbc0f"/>
<rect x="61" y="71" width="6" height="3" fill="#306230"/>
<rect x="67" y="71" width="21" height="3" fill="#9bbc0f"/>
<rect x="88" y="71" width="3" height="3" fill="#306230"/>
<rect x="28" y="74" width="3" height="3" fill="#306230"/>
<rect x="31" y="74" width="54" height="3" fill="#9bbc0f"/>
<rect x="85" y="74" width="3" height="3" fill="#306230"/>
<rect x="31" y="77" width="3" height="3" fill="#306230"/>
<rect x="34" y="77" width="48" height="3" fill="#9bbc0f"/>
<rect x="82" y="77" width="3" height="3" fill="#306230"/>
<rect x="34" y="80" width="6" height="3" fill="#306230"/>
<rect x="40" y="80" width="36" height="3" fill="#9bbc0f"/>
<rect x="76" y="80" width="6" height="3" fill="#306230"/>
<rect x="40" y="83" width="6" height="3" fill="#306230"/>
<rect x="46" y="83" width="24" height="3" fill="#9bbc0f"/>
<rect x="70" y="83" width="6" height="3" fill="#306230"/>
<rect x="46" y="86" width="24" height="3" fill="#306230"/>
<rect x="120" y="47" width="12" height="6" fill="#9bbc0f"/>
<rect x="138" y="47" width="12" height="6" fill="#9bbc0f"/>
<rect x="120" y="53" width="6" height="6" fill="#9bbc0f"/>
<rect x="132" y="53" width="6" height="6" fill="#9bbc0f"/>
<rect x="144" y="53" width="6" height="6" fill="#9bbc0f"/>
<rect x="120" y="59" width="6" height="6" fill="#9bbc0f"/>
<rect x="132" y="59" width="6" height="6" fill="#9bbc0f"/>
<rect x="144" y="59" width="6" height="6" fill="#9bbc0f"/>
<rect x="120" y="65" width="6" height="6" fill="#9bbc0f"/>
<rect x="132" y="65" width="6" height="6" fill="#9bbc0f"/>
<rect x="144" y="65" width="6" height="6" fill="#9bbc0f"/>
<rect x="120" y="71" width="6" height="6" fill="#9bbc0f"/>
<rect x="132" y="71" width="6" height="6" fill="#9bbc0f"/>
<rect x="144" y="71" width="6" height="6" fill="#9bbc0f"/>
<rect x="168" y="35" width="6" height="6" fill="#9bbc0f"/>
<rect x="168" y="47" width="6" height="6" fill="#9bbc0f"/>
<rect x="168" y="53" width="6" height="6" fill="#9bbc0f"/>
<rect x="168" y="59" width="6" height="6" fill="#9bbc0f"/>
<rect x="168" y="65" width="6" height="6" fill="#9bbc0f"/>
<rect x="168" y="71" width="6" height="6" fill="#9bbc0f"/>
<rect x="192" y="47" width="24" height="6" fill="#9bbc0f"/>
<rect x="192" y="53" width="6" height="6" fill="#9bbc0f"/>
<rect x="216" y="53" width="6" height="6" fill="#9bbc0f"/>
<rect x="192" y="59" width="6" height="6" fill="#9bbc0f"/>
<rect x="216" y="59" width="6" height="6" fill="#9bbc0f"/>
<rect x="192" y="65" width="6" height="6" fill="#9bbc0f"/>
<rect x="216" y="65" width="6" height="6" fill="#9bbc0f"/>
<rect x="192" y="71" width="6" height="6" fill="#9bbc0f"/>
<rect x="216" y="71" width="6" height="6" fill="#9bbc0f"/>
<rect x="240" y="35" width="6" height="6" fill="#9bbc0f"/>
<rect x="240" y="47" width="6" height="6" fill="#9bbc0f"/>
<rect x="240" y="53" width="6" height="6" fill="#9bbc0f"/>
<rect x="240" y="59" width="6" height="6" fill="#9bbc0f"/>
<rect x="240" y="65" width="6" height="6" fill="#9bbc0f"/>
<rect x="240" y="71" width="6" height="6" fill="#9bbc0f"/>
<rect x="288" y="35" width="6" height="6" fill="#9bbc0f"/>
<rect x="288" y="41" width="6" height="6" fill="#9bbc0f"/>
<rect x="270" y="47" width="24" height="6" fill="#9bbc0f"/>
<rect x="264" y="53" width="6" height="6" fill="#9bbc0f"/>
<rect x="288" y="53" width="6" height="6" fill="#9bbc0f"/>
<rect x="264" y="59" width="6" height="6" fill="#9bbc0f"/>
<rect x="288" y="59" width="6" height="6" fill="#9bbc0f"/>
<rect x="264" y="65" width="6" height="6" fill="#9bbc0f"/>
<rect x="288" y="65" width="6" height="6" fill="#9bbc0f"/>
<rect x="270" y="71" width="24" height="6" fill="#9bbc0f"/>
<rect x="306" y="47" width="18" height="6" fill="#9bbc0f"/>
<rect x="324" y="53" width="6" height="6" fill="#9bbc0f"/>
<rect x="306" y="59" width="24" height="6" fill="#9bbc0f"/>
<rect x="300" y="65" width="6" height="6" fill="#9bbc0f"/>
<rect x="324" y="65" width="6" height="6" fill="#9bbc0f"/>
<rect x="306" y="71" width="24" height="6" fill="#9bbc0f"/>
<rect x="336" y="47" width="12" height="6" fill="#9bbc0f"/>
<rect x="354" y="47" width="12" height="6" fill="#9bbc0f"/>
<rect x="336" y="53" width="6" height="6" fill="#9bbc0f"/>
<rect x="348" y="53" width="6" height="6" fill="#9bbc0f"/>
<rect x="360" y="53" width="6" height="6" fill="#9bbc0f"/>
<rect x="336" y="59" width="6" height="6" fill="#9bbc0f"/>
<rect x="348" y="59" width="6" height="6" fill="#9bbc0f"/>
<rect x="360" y="59" width="6" height="6" fill="#9bbc0f"/>
<rect x="336" y="65" width="6" height="6" fill="#9bbc0f"/>
<rect x="348" y="65" width="6" height="6" fill="#9bbc0f"/>
<rect x="360" y="65" width="6" height="6" fill="#9bbc0f"/>
<rect x="336" y="71" width="6" height="6" fill="#9bbc0f"/>
<rect x="348" y="71" width="6" height="6" fill="#9bbc0f"/>
<rect x="360" y="71" width="6" height="6" fill="#9bbc0f"/>
<rect x="378" y="47" width="18" height="6" fill="#9bbc0f"/>
<rect x="372" y="53" width="6" height="6" fill="#9bbc0f"/>
<rect x="396" y="53" width="6" height="6" fill="#9bbc0f"/>
<rect x="372" y="59" width="6" height="6" fill="#9bbc0f"/>
<rect x="396" y="59" width="6" height="6" fill="#9bbc0f"/>
<rect x="372" y="65" width="6" height="6" fill="#9bbc0f"/>
<rect x="396" y="65" width="6" height="6" fill="#9bbc0f"/>
<rect x="378" y="71" width="18" height="6" fill="#9bbc0f"/>
</svg>
