<svg xmlns="http://www.w3.org/2000/svg" viewBox="0 0 64 64" shape-rendering="crispEdges">
<rect x="0" y="0" width="64" height="1" fill="#306230"></rect>
<rect x="0" y="1" width="64" height="1" fill="#306230"></rect>
<rect x="0" y="2" width="2" height="1" fill="#306230"></rect>
<rect x="2" y="2" width="60" height="1" fill="#8bac0f"></rect>
<rect x="62" y="2" width="2" height="1" fill="#306230"></rect>
<rect x="0" y="3" width="2" height="1" fill="#306230"></rect>
<rect x="2" y="3" width="1" height="1" fill="#8bac0f"></rect>
<rect x="3" y="3" width="58" height="1" fill="#9bbc0f"></rect>
<rect x="61" y="3" width="1" height="1" fill="#8bac0f"></rect>
<rect x="62" y="3" width="2" height="1" fill="#306230"></rect>
<rect x="0" y="4" width="2" height="1" fill="#306230"></rect>
<rect x="2" y="4" width="1" height="1" fill="#8bac0f"></rect>
<rect x="3" y="4" width="1" height="1" fill="#9bbc0f"></rect>
<rect x="4" y="4" width="56" height="1" fill="#0f380f"></rect>
<rect x="60" y="4" width="1" height="1" fill="#9bbc0f"></rect>
<rect x="61" y="4" width="1" height="1" fill="#8bac0f"></rect>
<rect x="62" y="4" width="2" height="1" fill="#306230"></rect>
<rect x="0" y="5" width="2" height="1" fill="#306230"></rect>
<rect x="2" y="5" width="1" height="1" fill="#8bac0f"></rect>
<rect x="3" y="5" width="1" height="1" fill="#9bbc0f"></rect>
<rect x="4" y="5" width="56" height="1" fill="#0f380f"></rect>
<rect x="60" y="5" width="1" height="1" fill="#9bbc0f"></rect>
<rect x="61" y="5" width="1" height="1" fill="#8bac0f"></rect>
<rect x="62" y="5" width="2" height="1" fill="#306230"></rect>
<rect x="0" y="6" width="2" height="1" fill="#306230"></rect>
<rect x="2" y="6" width="1" height="1" fill="#8bac0f"></rect>
<rect x="3" y="6" width="1" height="1" fill="#9bbc0f"></rect>
<rect x="4" y="6" width="56" height="1" fill="#0f380f"></rect>
<rect x="60" y="6" width="1" height="1" fill="#9bbc0f"></rect>
<rect x="61" y="6" width="1" height="1" fill="#8bac0f"></rect>
<rect x="62" y="6" width="2" height="1" fill="#306230"></rect>
<rect x="0" y="7" width="2" height="1" fill="#306230"></rect>
<rect x="2" y="7" width="1" height="1" fill="#8bac0f"></rect>
<rect x="3" y="7" width="1" height="1" fill="#9bbc0f"></rect>
<rect x="4" y="7" width="56" height="1" fill="#0f380f"></rect>
<rect x="60" y="7" width="1" height="1" fill="#9bbc0f"></rect>
<rect x="61" y="7" width="1" height="1" fill="#8bac0f"></rect>
<rect x="62" y="7" width="2" height="1" fill="#306230"></rect>
<rect x="0" y="8" width="2" height="1" fill="#306230"></rect>
<rect x="2" y="8" width="1" height="1" fill="#8bac0f"></rect>
<rect x="3" y="8" width="1" height="1" fill="#9bbc0f"></rect>
<rect x="4" y="8" width="27" height="1" fill="#0f380f"></rect>
<rect x="31" y="8" width="2" height="1" fill="#306230"></rect>
<rect x="33" y="8" width="27" height="1" fill="#0f380f"></rect>
<rect x="60" y="8" width="1" height="1" fill="#9bbc0f"></rect>
<rect x="61" y="8" width="1" height="1" fill="#8bac0f"></rect>
<rect x="62" y="8" width="2" height="1" fill="#306230"></rect>
<rect x="0" y="9" width="2" height="1" fill="#306230"></rect>
<rect x="2" y="9" width="1" height="1" fill="#8bac0f"></rect>
<rect x="3" y="9" width="1" height="1" fill="#9bbc0f"></rect>
<rect x="4" y="9" width="27" height="1" fill="#0f380f"></rect>
<rect x="31" y="9" width="2" height="1" fill="#306230"></rect>
<rect x="33" y="9" width="27" height="1" fill="#0f380f"></rect>
<rect x="60" y="9" width="1" height="1" fill="#9bbc0f"></rect>
<rect x="61" y="9" width="1" height="1" fill="#8bac0f"></rect>
<rect x="62" y="9" width="2" height="1" fill="#306230"></rect>
<rect x="0" y="10" width="2" height="1" fill="#306230"></rect>
<rect x="2" y="10" width="1" height="1" fill="#8bac0f"></rect>
<rect x="3" y="10" width="1" height="1" fill="#9bbc0f"></rect>
<rect x="4" y="10" width="27" height="1" fill="#0f380f"></rect>
<rect x="31" y="10" width="2" height="1" fill="#306230"></rect>
<rect x="33" y="10" width="27" height="1" fill="#0f380f"></rect>
<rect x="60" y="10" width="1" height="1" fill="#9bbc0f"></rect>
<rect x="61" y="10" width="1" height="1" fill="#8bac0f"></rect>
<rect x="62" y="10" width="2" height="1" fill="#306230"></rect>
<rect x="0" y="11" width="2" height="1" fill="#306230"></rect>
<rect x="2" y="11" width="1" height="1" fill="#8bac0f"></rect>
<rect x="3" y="11" width="1" height="1" fill="#9bbc0f"></rect>
<rect x="4" y="11" width="56" height="1" fill="#0f380f"></rect>
<rect x="60" y="11" width="1" height="1" fill="#9bbc0f"></rect>
<rect x="61" y="11" width="1" height="1" fill="#8bac0f"></rect>
<rect x="62" y="11" width="2" height="1" fill="#306230"></rect>
<rect x="0" y="12" width="2" height="1" fill="#306230"></rect>
<rect x="2" y="12" width="1" height="1" fill="#8bac0f"></rect>
<rect x="3" y="12" width="1" height="1" fill="#9bbc0f"></rect>
<rect x="4" y="12" width="56" height="1" fill="#0f380f"></rect>
<rect x="60" y="12" width="1" height="1" fill="#9bbc0f"></rect>
<rect x="61" y="12" width="1" height="1" fill="#8bac0f"></rect>
<rect x="62" y="12" width="2" height="1" fill="#306230"></rect>
<rect x="0" y="13" width="2" height="1" fill="#306230"></rect>
<rect x="2" y="13" width="1" height="1" fill="#8bac0f"></rect>
<rect x="3" y="13" width="1" height="1" fill="#9bbc0f"></rect>
<rect x="4" y="13" width="42" height="1" fill="#0f380f"></rect>
<rect x="46" y="13" width="3" height="1" fill="#0a260a"></rect>
<rect x="49" y="13" width="11" height="1" fill="#0f380f"></rect>
<rect x="60" y="13" width="1" height="1" fill="#9bbc0f"></rect>
<rect x="61" y="13" width="1" height="1" fill="#8bac0f"></rect>
<rect x="62" y="13" width="2" height="1" fill="#306230"></rect>
<rect x="0" y="14" width="2" height="1" fill="#306230"></rect>
<rect x="2" y="14" width="1" height="1" fill="#8bac0f"></rect>
<rect x="3" y="14" width="1" height="1" fill="#9bbc0f"></rect>
<rect x="4" y="14" width="27" height="1" fill="#0f380f"></rect>
<rect x="31" y="14" width="2" height="1" fill="#306230"></rect>
<rect x="33" y="14" width="11" height="1" fill="#0f380f"></rect>
<rect x="44" y="14" width="2" height="1" fill="#0a260a"></rect>
<rect x="46" y="14" width="3" height="1" fill="#c7e06a"></rect>
<rect x="49" y="14" width="2" height="1" fill="#0a260a"></rect>
<rect x="51" y="14" width="9" height="1" fill="#0f380f"></rect>
<rect x="60" y="14" width="1" height="1" fill="#9bbc0f"></rect>
<rect x="61" y="14" width="1" height="1" fill="#8bac0f"></rect>
<rect x="62" y="14" width="2" height="1" fill="#306230"></rect>
<rect x="0" y="15" width="2" height="1" fill="#306230"></rect>
<rect x="2" y="15" width="1" height="1" fill="#8bac0f"></rect>
<rect x="3" y="15" width="1" height="1" fill="#9bbc0f"></rect>
<rect x="4" y="15" width="27" height="1" fill="#0f380f"></rect>
<rect x="31" y="15" width="2" height="1" fill="#306230"></rect>
<rect x="33" y="15" width="10" height="1" fill="#0f380f"></rect>
<rect x="43" y="15" width="2" height="1" fill="#0a260a"></rect>
<rect x="45" y="15" width="1" height="1" fill="#c7e06a"></rect>
<rect x="46" y="15" width="1" height="1" fill="#ffd24a"></rect>
<rect x="47" y="15" width="3" height="1" fill="#c7e06a"></rect>
<rect x="50" y="15" width="2" height="1" fill="#0a260a"></rect>
<rect x="52" y="15" width="8" height="1" fill="#0f380f"></rect>
<rect x="60" y="15" width="1" height="1" fill="#9bbc0f"></rect>
<rect x="61" y="15" width="1" height="1" fill="#8bac0f"></rect>
<rect x="62" y="15" width="2" height="1" fill="#306230"></rect>
<rect x="0" y="16" width="2" height="1" fill="#306230"></rect>
<rect x="2" y="16" width="1" height="1" fill="#8bac0f"></rect>
<rect x="3" y="16" width="1" height="1" fill="#9bbc0f"></rect>
<rect x="4" y="16" width="27" height="1" fill="#0f380f"></rect>
<rect x="31" y="16" width="2" height="1" fill="#306230"></rect>
<rect x="33" y="16" width="10" height="1" fill="#0f380f"></rect>
<rect x="43" y="16" width="1" height="1" fill="#0a260a"></rect>
<rect x="44" y="16" width="1" height="1" fill="#c7e06a"></rect>
<rect x="45" y="16" width="3" height="1" fill="#ffd24a"></rect>
<rect x="48" y="16" width="3" height="1" fill="#c7e06a"></rect>
<rect x="51" y="16" width="1" height="1" fill="#0a260a"></rect>
<rect x="52" y="16" width="8" height="1" fill="#0f380f"></rect>
<rect x="60" y="16" width="1" height="1" fill="#9bbc0f"></rect>
<rect x="61" y="16" width="1" height="1" fill="#8bac0f"></rect>
<rect x="62" y="16" width="2" height="1" fill="#306230"></rect>
<rect x="0" y="17" width="2" height="1" fill="#306230"></rect>
<rect x="2" y="17" width="1" height="1" fill="#8bac0f"></rect>
<rect x="3" y="17" width="1" height="1" fill="#9bbc0f"></rect>
<rect x="4" y="17" width="38" height="1" fill="#0f380f"></rect>
<rect x="42" y="17" width="1" height="1" fill="#0a260a"></rect>
<rect x="43" y="17" width="1" height="1" fill="#c7e06a"></rect>
<rect x="44" y="17" width="5" height="1" fill="#ffd24a"></rect>
<rect x="49" y="17" width="3" height="1" fill="#c7e06a"></rect>
<rect x="52" y="17" width="1" height="1" fill="#0a260a"></rect>
<rect x="53" y="17" width="7" height="1" fill="#0f380f"></rect>
<rect x="60" y="17" width="1" height="1" fill="#9bbc0f"></rect>
<rect x="61" y="17" width="1" height="1" fill="#8bac0f"></rect>
<rect x="62" y="17" width="2" height="1" fill="#306230"></rect>
<rect x="0" y="18" width="2" height="1" fill="#306230"></rect>
<rect x="2" y="18" width="1" height="1" fill="#8bac0f"></rect>
<rect x="3" y="18" width="1" height="1" fill="#9bbc0f"></rect>
<rect x="4" y="18" width="38" height="1" fill="#0f380f"></rect>
<rect x="42" y="18" width="1" height="1" fill="#0a260a"></rect>
<rect x="43" y="18" width="2" height="1" fill="#c7e06a"></rect>
<rect x="45" y="18" width="3" height="1" fill="#ffd24a"></rect>
<rect x="48" y="18" width="4" height="1" fill="#c7e06a"></rect>
<rect x="52" y="18" width="1" height="1" fill="#0a260a"></rect>
<rect x="53" y="18" width="7" height="1" fill="#0f380f"></rect>
<rect x="60" y="18" width="1" height="1" fill="#9bbc0f"></rect>
<rect x="61" y="18" width="1" height="1" fill="#8bac0f"></rect>
<rect x="62" y="18" width="2" height="1" fill="#306230"></rect>
<rect x="0" y="19" width="2" height="1" fill="#306230"></rect>
<rect x="2" y="19" width="1" height="1" fill="#8bac0f"></rect>
<rect x="3" y="19" width="1" height="1" fill="#9bbc0f"></rect>
<rect x="4" y="19" width="38" height="1" fill="#0f380f"></rect>
<rect x="42" y="19" width="1" height="1" fill="#0a260a"></rect>
<rect x="43" y="19" width="3" height="1" fill="#c7e06a"></rect>
<rect x="46" y="19" width="1" height="1" fill="#ffd24a"></rect>
<rect x="47" y="19" width="5" height="1" fill="#c7e06a"></rect>
<rect x="52" y="19" width="1" height="1" fill="#0a260a"></rect>
<rect x="53" y="19" width="7" height="1" fill="#0f380f"></rect>
<rect x="60" y="19" width="1" height="1" fill="#9bbc0f"></rect>
<rect x="61" y="19" width="1" height="1" fill="#8bac0f"></rect>
<rect x="62" y="19" width="2" height="1" fill="#306230"></rect>
<rect x="0" y="20" width="2" height="1" fill="#306230"></rect>
<rect x="2" y="20" width="1" height="1" fill="#8bac0f"></rect>
<rect x="3" y="20" width="1" height="1" fill="#9bbc0f"></rect>
<rect x="4" y="20" width="26" height="1" fill="#0f380f"></rect>
<rect x="30" y="20" width="10" height="1" fill="#306230"></rect>
<rect x="40" y="20" width="3" height="1" fill="#0f380f"></rect>
<rect x="43" y="20" width="1" height="1" fill="#0a260a"></rect>
<rect x="44" y="20" width="7" height="1" fill="#c7e06a"></rect>
<rect x="51" y="20" width="1" height="1" fill="#0a260a"></rect>
<rect x="52" y="20" width="8" height="1" fill="#0f380f"></rect>
<rect x="60" y="20" width="1" height="1" fill="#9bbc0f"></rect>
<rect x="61" y="20" width="1" height="1" fill="#8bac0f"></rect>
<rect x="62" y="20" width="2" height="1" fill="#306230"></rect>
<rect x="0" y="21" width="2" height="1" fill="#306230"></rect>
<rect x="2" y="21" width="1" height="1" fill="#8bac0f"></rect>
<rect x="3" y="21" width="1" height="1" fill="#9bbc0f"></rect>
<rect x="4" y="21" width="26" height="1" fill="#0f380f"></rect>
<rect x="30" y="21" width="10" height="1" fill="#306230"></rect>
<rect x="40" y="21" width="3" height="1" fill="#0f380f"></rect>
<rect x="43" y="21" width="2" height="1" fill="#0a260a"></rect>
<rect x="45" y="21" width="5" height="1" fill="#c7e06a"></rect>
<rect x="50" y="21" width="2" height="1" fill="#0a260a"></rect>
<rect x="52" y="21" width="8" height="1" fill="#0f380f"></rect>
<rect x="60" y="21" width="1" height="1" fill="#9bbc0f"></rect>
<rect x="61" y="21" width="1" height="1" fill="#8bac0f"></rect>
<rect x="62" y="21" width="2" height="1" fill="#306230"></rect>
<rect x="0" y="22" width="2" height="1" fill="#306230"></rect>
<rect x="2" y="22" width="1" height="1" fill="#8bac0f"></rect>
<rect x="3" y="22" width="1" height="1" fill="#9bbc0f"></rect>
<rect x="4" y="22" width="18" height="1" fill="#0f380f"></rect>
<rect x="22" y="22" width="5" height="1" fill="#0a260a"></rect>
<rect x="27" y="22" width="4" height="1" fill="#0f380f"></rect>
<rect x="31" y="22" width="2" height="1" fill="#306230"></rect>
<rect x="33" y="22" width="11" height="1" fill="#0f380f"></rect>
<rect x="44" y="22" width="2" height="1" fill="#0a260a"></rect>
<rect x="46" y="22" width="3" height="1" fill="#c7e06a"></rect>
<rect x="49" y="22" width="2" height="1" fill="#0a260a"></rect>
<rect x="51" y="22" width="9" height="1" fill="#0f380f"></rect>
<rect x="60" y="22" width="1" height="1" fill="#9bbc0f"></rect>
<rect x="61" y="22" width="1" height="1" fill="#8bac0f"></rect>
<rect x="62" y="22" width="2" height="1" fill="#306230"></rect>
<rect x="0" y="23" width="2" height="1" fill="#306230"></rect>
<rect x="2" y="23" width="1" height="1" fill="#8bac0f"></rect>
<rect x="3" y="23" width="1" height="1" fill="#9bbc0f"></rect>
<rect x="4" y="23" width="15" height="1" fill="#0f380f"></rect>
<rect x="19" y="23" width="4" height="1" fill="#0a260a"></rect>
<rect x="23" y="23" width="3" height="1" fill="#c2331f"></rect>
<rect x="26" y="23" width="4" height="1" fill="#0a260a"></rect>
<rect x="30" y="23" width="16" height="1" fill="#0f380f"></rect>
<rect x="46" y="23" width="3" height="1" fill="#0a260a"></rect>
<rect x="49" y="23" width="11" height="1" fill="#0f380f"></rect>
<rect x="60" y="23" width="1" height="1" fill="#9bbc0f"></rect>
<rect x="61" y="23" width="1" height="1" fill="#8bac0f"></rect>
<rect x="62" y="23" width="2" height="1" fill="#306230"></rect>
<rect x="0" y="24" width="2" height="1" fill="#306230"></rect>
<rect x="2" y="24" width="1" height="1" fill="#8bac0f"></rect>
<rect x="3" y="24" width="1" height="1" fill="#9bbc0f"></rect>
<rect x="4" y="24" width="14" height="1" fill="#0f380f"></rect>
<rect x="18" y="24" width="2" height="1" fill="#0a260a"></rect>
<rect x="20" y="24" width="9" height="1" fill="#c2331f"></rect>
<rect x="29" y="24" width="2" height="1" fill="#0a260a"></rect>
<rect x="31" y="24" width="3" height="1" fill="#0f380f"></rect>
<rect x="34" y="24" width="10" height="1" fill="#306230"></rect>
<rect x="44" y="24" width="16" height="1" fill="#0f380f"></rect>
<rect x="60" y="24" width="1" height="1" fill="#9bbc0f"></rect>
<rect x="61" y="24" width="1" height="1" fill="#8bac0f"></rect>
<rect x="62" y="24" width="2" height="1" fill="#306230"></rect>
<rect x="0" y="25" width="2" height="1" fill="#306230"></rect>
<rect x="2" y="25" width="1" height="1" fill="#8bac0f"></rect>
<rect x="3" y="25" width="1" height="1" fill="#9bbc0f"></rect>
<rect x="4" y="25" width="12" height="1" fill="#0f380f"></rect>
<rect x="16" y="25" width="2" height="1" fill="#0a260a"></rect>
<rect x="18" y="25" width="13" height="1" fill="#c2331f"></rect>
<rect x="31" y="25" width="2" height="1" fill="#0a260a"></rect>
<rect x="33" y="25" width="1" height="1" fill="#0f380f"></rect>
<rect x="34" y="25" width="10" height="1" fill="#306230"></rect>
<rect x="44" y="25" width="16" height="1" fill="#0f380f"></rect>
<rect x="60" y="25" width="1" height="1" fill="#9bbc0f"></rect>
<rect x="61" y="25" width="1" height="1" fill="#8bac0f"></rect>
<rect x="62" y="25" width="2" height="1" fill="#306230"></rect>
<rect x="0" y="26" width="2" height="1" fill="#306230"></rect>
<rect x="2" y="26" width="1" height="1" fill="#8bac0f"></rect>
<rect x="3" y="26" width="1" height="1" fill="#9bbc0f"></rect>
<rect x="4" y="26" width="11" height="1" fill="#0f380f"></rect>
<rect x="15" y="26" width="2" height="1" fill="#0a260a"></rect>
<rect x="17" y="26" width="3" height="1" fill="#c2331f"></rect>
<rect x="20" y="26" width="3" height="1" fill="#e0644a"></rect>
<rect x="23" y="26" width="9" height="1" fill="#c2331f"></rect>
<rect x="32" y="26" width="2" height="1" fill="#0a260a"></rect>
<rect x="34" y="26" width="26" height="1" fill="#0f380f"></rect>
<rect x="60" y="26" width="1" height="1" fill="#9bbc0f"></rect>
<rect x="61" y="26" width="1" height="1" fill="#8bac0f"></rect>
<rect x="62" y="26" width="2" height="1" fill="#306230"></rect>
<rect x="0" y="27" width="2" height="1" fill="#306230"></rect>
<rect x="2" y="27" width="1" height="1" fill="#8bac0f"></rect>
<rect x="3" y="27" width="1" height="1" fill="#9bbc0f"></rect>
<rect x="4" y="27" width="11" height="1" fill="#0f380f"></rect>
<rect x="15" y="27" width="1" height="1" fill="#0a260a"></rect>
<rect x="16" y="27" width="2" height="1" fill="#c2331f"></rect>
<rect x="18" y="27" width="7" height="1" fill="#e0644a"></rect>
<rect x="25" y="27" width="8" height="1" fill="#c2331f"></rect>
<rect x="33" y="27" width="1" height="1" fill="#0a260a"></rect>
<rect x="34" y="27" width="26" height="1" fill="#0f380f"></rect>
<rect x="60" y="27" width="1" height="1" fill="#9bbc0f"></rect>
<rect x="61" y="27" width="1" height="1" fill="#8bac0f"></rect>
<rect x="62" y="27" width="2" height="1" fill="#306230"></rect>
<rect x="0" y="28" width="2" height="1" fill="#306230"></rect>
<rect x="2" y="28" width="1" height="1" fill="#8bac0f"></rect>
<rect x="3" y="28" width="1" height="1" fill="#9bbc0f"></rect>
<rect x="4" y="28" width="10" height="1" fill="#0f380f"></rect>
<rect x="14" y="28" width="1" height="1" fill="#0a260a"></rect>
<rect x="15" y="28" width="2" height="1" fill="#c2331f"></rect>
<rect x="17" y="28" width="3" height="1" fill="#e0644a"></rect>
<rect x="20" y="28" width="1" height="1" fill="#c7e06a"></rect>
<rect x="21" y="28" width="5" height="1" fill="#e0644a"></rect>
<rect x="26" y="28" width="8" height="1" fill="#c2331f"></rect>
<rect x="34" y="28" width="1" height="1" fill="#0a260a"></rect>
<rect x="35" y="28" width="25" height="1" fill="#0f380f"></rect>
<rect x="60" y="28" width="1" height="1" fill="#9bbc0f"></rect>
<rect x="61" y="28" width="1" height="1" fill="#8bac0f"></rect>
<rect x="62" y="28" width="2" height="1" fill="#306230"></rect>
<rect x="0" y="29" width="2" height="1" fill="#306230"></rect>
<rect x="2" y="29" width="1" height="1" fill="#8bac0f"></rect>
<rect x="3" y="29" width="1" height="1" fill="#9bbc0f"></rect>
<rect x="4" y="29" width="9" height="1" fill="#0f380f"></rect>
<rect x="13" y="29" width="2" height="1" fill="#0a260a"></rect>
<rect x="15" y="29" width="2" height="1" fill="#c2331f"></rect>
<rect x="17" y="29" width="2" height="1" fill="#e0644a"></rect>
<rect x="19" y="29" width="3" height="1" fill="#c7e06a"></rect>
<rect x="22" y="29" width="4" height="1" fill="#e0644a"></rect>
<rect x="26" y="29" width="8" height="1" fill="#c2331f"></rect>
<rect x="34" y="29" width="2" height="1" fill="#0a260a"></rect>
<rect x="36" y="29" width="24" height="1" fill="#0f380f"></rect>
<rect x="60" y="29" width="1" height="1" fill="#9bbc0f"></rect>
<rect x="61" y="29" width="1" height="1" fill="#8bac0f"></rect>
<rect x="62" y="29" width="2" height="1" fill="#306230"></rect>
<rect x="0" y="30" width="2" height="1" fill="#306230"></rect>
<rect x="2" y="30" width="1" height="1" fill="#8bac0f"></rect>
<rect x="3" y="30" width="1" height="1" fill="#9bbc0f"></rect>
<rect x="4" y="30" width="9" height="1" fill="#0f380f"></rect>
<rect x="13" y="30" width="1" height="1" fill="#0a260a"></rect>
<rect x="14" y="30" width="2" height="1" fill="#c2331f"></rect>
<rect x="16" y="30" width="2" height="1" fill="#e0644a"></rect>
<rect x="18" y="30" width="5" height="1" fill="#c7e06a"></rect>
<rect x="23" y="30" width="4" height="1" fill="#e0644a"></rect>
<rect x="27" y="30" width="8" height="1" fill="#c2331f"></rect>
<rect x="35" y="30" width="1" height="1" fill="#0a260a"></rect>
<rect x="36" y="30" width="24" height="1" fill="#0f380f"></rect>
<rect x="60" y="30" width="1" height="1" fill="#9bbc0f"></rect>
<rect x="61" y="30" width="1" height="1" fill="#8bac0f"></rect>
<rect x="62" y="30" width="2" height="1" fill="#306230"></rect>
<rect x="0" y="31" width="2" height="1" fill="#306230"></rect>
<rect x="2" y="31" width="1" height="1" fill="#8bac0f"></rect>
<rect x="3" y="31" width="1" height="1" fill="#9bbc0f"></rect>
<rect x="4" y="31" width="9" height="1" fill="#0f380f"></rect>
<rect x="13" y="31" width="1" height="1" fill="#0a260a"></rect>
<rect x="14" y="31" width="2" height="1" fill="#c2331f"></rect>
<rect x="16" y="31" width="3" height="1" fill="#e0644a"></rect>
<rect x="19" y="31" width="3" height="1" fill="#c7e06a"></rect>
<rect x="22" y="31" width="5" height="1" fill="#e0644a"></rect>
<rect x="27" y="31" width="8" height="1" fill="#c2331f"></rect>
<rect x="35" y="31" width="1" height="1" fill="#0a260a"></rect>
<rect x="36" y="31" width="24" height="1" fill="#0f380f"></rect>
<rect x="60" y="31" width="1" height="1" fill="#9bbc0f"></rect>
<rect x="61" y="31" width="1" height="1" fill="#8bac0f"></rect>
<rect x="62" y="31" width="2" height="1" fill="#306230"></rect>
<rect x="0" y="32" width="2" height="1" fill="#306230"></rect>
<rect x="2" y="32" width="1" height="1" fill="#8bac0f"></rect>
<rect x="3" y="32" width="1" height="1" fill="#9bbc0f"></rect>
<rect x="4" y="32" width="8" height="1" fill="#0f380f"></rect>
<rect x="12" y="32" width="2" height="1" fill="#0a260a"></rect>
<rect x="14" y="32" width="2" height="1" fill="#c2331f"></rect>
<rect x="16" y="32" width="4" height="1" fill="#e0644a"></rect>
<rect x="20" y="32" width="1" height="1" fill="#c7e06a"></rect>
<rect x="21" y="32" width="6" height="1" fill="#e0644a"></rect>
<rect x="27" y="32" width="8" height="1" fill="#c2331f"></rect>
<rect x="35" y="32" width="2" height="1" fill="#0a260a"></rect>
<rect x="37" y="32" width="23" height="1" fill="#0f380f"></rect>
<rect x="60" y="32" width="1" height="1" fill="#9bbc0f"></rect>
<rect x="61" y="32" width="1" height="1" fill="#8bac0f"></rect>
<rect x="62" y="32" width="2" height="1" fill="#306230"></rect>
<rect x="0" y="33" width="2" height="1" fill="#306230"></rect>
<rect x="2" y="33" width="1" height="1" fill="#8bac0f"></rect>
<rect x="3" y="33" width="1" height="1" fill="#9bbc0f"></rect>
<rect x="4" y="33" width="8" height="1" fill="#0f380f"></rect>
<rect x="12" y="33" width="1" height="1" fill="#0a260a"></rect>
<rect x="13" y="33" width="4" height="1" fill="#c2331f"></rect>
<rect x="17" y="33" width="9" height="1" fill="#e0644a"></rect>
<rect x="26" y="33" width="10" height="1" fill="#c2331f"></rect>
<rect x="36" y="33" width="1" height="1" fill="#0a260a"></rect>
<rect x="37" y="33" width="23" height="1" fill="#0f380f"></rect>
<rect x="60" y="33" width="1" height="1" fill="#9bbc0f"></rect>
<rect x="61" y="33" width="1" height="1" fill="#8bac0f"></rect>
<rect x="62" y="33" width="2" height="1" fill="#306230"></rect>
<rect x="0" y="34" width="2" height="1" fill="#306230"></rect>
<rect x="2" y="34" width="1" height="1" fill="#8bac0f"></rect>
<rect x="3" y="34" width="1" height="1" fill="#9bbc0f"></rect>
<rect x="4" y="34" width="8" height="1" fill="#0f380f"></rect>
<rect x="12" y="34" width="1" height="1" fill="#0a260a"></rect>
<rect x="13" y="34" width="4" height="1" fill="#c2331f"></rect>
<rect x="17" y="34" width="9" height="1" fill="#e0644a"></rect>
<rect x="26" y="34" width="10" height="1" fill="#c2331f"></rect>
<rect x="36" y="34" width="1" height="1" fill="#0a260a"></rect>
<rect x="37" y="34" width="23" height="1" fill="#0f380f"></rect>
<rect x="60" y="34" width="1" height="1" fill="#9bbc0f"></rect>
<rect x="61" y="34" width="1" height="1" fill="#8bac0f"></rect>
<rect x="62" y="34" width="2" height="1" fill="#306230"></rect>
<rect x="0" y="35" width="2" height="1" fill="#306230"></rect>
<rect x="2" y="35" width="1" height="1" fill="#8bac0f"></rect>
<rect x="3" y="35" width="1" height="1" fill="#9bbc0f"></rect>
<rect x="4" y="35" width="8" height="1" fill="#0f380f"></rect>
<rect x="12" y="35" width="1" height="1" fill="#0a260a"></rect>
<rect x="13" y="35" width="5" height="1" fill="#c2331f"></rect>
<rect x="18" y="35" width="7" height="1" fill="#e0644a"></rect>
<rect x="25" y="35" width="11" height="1" fill="#c2331f"></rect>
<rect x="36" y="35" width="1" height="1" fill="#0a260a"></rect>
<rect x="37" y="35" width="23" height="1" fill="#0f380f"></rect>
<rect x="60" y="35" width="1" height="1" fill="#9bbc0f"></rect>
<rect x="61" y="35" width="1" height="1" fill="#8bac0f"></rect>
<rect x="62" y="35" width="2" height="1" fill="#306230"></rect>
<rect x="0" y="36" width="2" height="1" fill="#306230"></rect>
<rect x="2" y="36" width="1" height="1" fill="#8bac0f"></rect>
<rect x="3" y="36" width="1" height="1" fill="#9bbc0f"></rect>
<rect x="4" y="36" width="8" height="1" fill="#0f380f"></rect>
<rect x="12" y="36" width="2" height="1" fill="#0a260a"></rect>
<rect x="14" y="36" width="6" height="1" fill="#c2331f"></rect>
<rect x="20" y="36" width="3" height="1" fill="#e0644a"></rect>
<rect x="23" y="36" width="12" height="1" fill="#c2331f"></rect>
<rect x="35" y="36" width="2" height="1" fill="#0a260a"></rect>
<rect x="37" y="36" width="23" height="1" fill="#0f380f"></rect>
<rect x="60" y="36" width="1" height="1" fill="#9bbc0f"></rect>
<rect x="61" y="36" width="1" height="1" fill="#8bac0f"></rect>
<rect x="62" y="36" width="2" height="1" fill="#306230"></rect>
<rect x="0" y="37" width="2" height="1" fill="#306230"></rect>
<rect x="2" y="37" width="1" height="1" fill="#8bac0f"></rect>
<rect x="3" y="37" width="1" height="1" fill="#9bbc0f"></rect>
<rect x="4" y="37" width="9" height="1" fill="#0f380f"></rect>
<rect x="13" y="37" width="1" height="1" fill="#0a260a"></rect>
<rect x="14" y="37" width="21" height="1" fill="#c2331f"></rect>
<rect x="35" y="37" width="1" height="1" fill="#0a260a"></rect>
<rect x="36" y="37" width="24" height="1" fill="#0f380f"></rect>
<rect x="60" y="37" width="1" height="1" fill="#9bbc0f"></rect>
<rect x="61" y="37" width="1" height="1" fill="#8bac0f"></rect>
<rect x="62" y="37" width="2" height="1" fill="#306230"></rect>
<rect x="0" y="38" width="2" height="1" fill="#306230"></rect>
<rect x="2" y="38" width="1" height="1" fill="#8bac0f"></rect>
<rect x="3" y="38" width="1" height="1" fill="#9bbc0f"></rect>
<rect x="4" y="38" width="9" height="1" fill="#0f380f"></rect>
<rect x="13" y="38" width="1" height="1" fill="#0a260a"></rect>
<rect x="14" y="38" width="21" height="1" fill="#c2331f"></rect>
<rect x="35" y="38" width="1" height="1" fill="#0a260a"></rect>
<rect x="36" y="38" width="24" height="1" fill="#0f380f"></rect>
<rect x="60" y="38" width="1" height="1" fill="#9bbc0f"></rect>
<rect x="61" y="38" width="1" height="1" fill="#8bac0f"></rect>
<rect x="62" y="38" width="2" height="1" fill="#306230"></rect>
<rect x="0" y="39" width="2" height="1" fill="#306230"></rect>
<rect x="2" y="39" width="1" height="1" fill="#8bac0f"></rect>
<rect x="3" y="39" width="1" height="1" fill="#9bbc0f"></rect>
<rect x="4" y="39" width="9" height="1" fill="#0f380f"></rect>
<rect x="13" y="39" width="2" height="1" fill="#0a260a"></rect>
<rect x="15" y="39" width="19" height="1" fill="#c2331f"></rect>
<rect x="34" y="39" width="2" height="1" fill="#0a260a"></rect>
<rect x="36" y="39" width="24" height="1" fill="#0f380f"></rect>
<rect x="60" y="39" width="1" height="1" fill="#9bbc0f"></rect>
<rect x="61" y="39" width="1" height="1" fill="#8bac0f"></rect>
<rect x="62" y="39" width="2" height="1" fill="#306230"></rect>
<rect x="0" y="40" width="2" height="1" fill="#306230"></rect>
<rect x="2" y="40" width="1" height="1" fill="#8bac0f"></rect>
<rect x="3" y="40" width="1" height="1" fill="#9bbc0f"></rect>
<rect x="4" y="40" width="10" height="1" fill="#0f380f"></rect>
<rect x="14" y="40" width="1" height="1" fill="#0a260a"></rect>
<rect x="15" y="40" width="19" height="1" fill="#c2331f"></rect>
<rect x="34" y="40" width="1" height="1" fill="#0a260a"></rect>
<rect x="35" y="40" width="25" height="1" fill="#0f380f"></rect>
<rect x="60" y="40" width="1" height="1" fill="#9bbc0f"></rect>
<rect x="61" y="40" width="1" height="1" fill="#8bac0f"></rect>
<rect x="62" y="40" width="2" height="1" fill="#306230"></rect>
<rect x="0" y="41" width="2" height="1" fill="#306230"></rect>
<rect x="2" y="41" width="1" height="1" fill="#8bac0f"></rect>
<rect x="3" y="41" width="1" height="1" fill="#9bbc0f"></rect>
<rect x="4" y="41" width="11" height="1" fill="#0f380f"></rect>
<rect x="15" y="41" width="1" height="1" fill="#0a260a"></rect>
<rect x="16" y="41" width="17" height="1" fill="#c2331f"></rect>
<rect x="33" y="41" width="1" height="1" fill="#0a260a"></rect>
<rect x="34" y="41" width="26" height="1" fill="#0f380f"></rect>
<rect x="60" y="41" width="1" height="1" fill="#9bbc0f"></rect>
<rect x="61" y="41" width="1" height="1" fill="#8bac0f"></rect>
<rect x="62" y="41" width="2" height="1" fill="#306230"></rect>
<rect x="0" y="42" width="2" height="1" fill="#306230"></rect>
<rect x="2" y="42" width="1" height="1" fill="#8bac0f"></rect>
<rect x="3" y="42" width="1" height="1" fill="#9bbc0f"></rect>
<rect x="4" y="42" width="11" height="1" fill="#0f380f"></rect>
<rect x="15" y="42" width="2" height="1" fill="#0a260a"></rect>
<rect x="17" y="42" width="15" height="1" fill="#c2331f"></rect>
<rect x="32" y="42" width="2" height="1" fill="#0a260a"></rect>
<rect x="34" y="42" width="26" height="1" fill="#0f380f"></rect>
<rect x="60" y="42" width="1" height="1" fill="#9bbc0f"></rect>
<rect x="61" y="42" width="1" height="1" fill="#8bac0f"></rect>
<rect x="62" y="42" width="2" height="1" fill="#306230"></rect>
<rect x="0" y="43" width="2" height="1" fill="#306230"></rect>
<rect x="2" y="43" width="1" height="1" fill="#8bac0f"></rect>
<rect x="3" y="43" width="1" height="1" fill="#9bbc0f"></rect>
<rect x="4" y="43" width="12" height="1" fill="#0f380f"></rect>
<rect x="16" y="43" width="2" height="1" fill="#0a260a"></rect>
<rect x="18" y="43" width="13" height="1" fill="#c2331f"></rect>
<rect x="31" y="43" width="2" height="1" fill="#0a260a"></rect>
<rect x="33" y="43" width="27" height="1" fill="#0f380f"></rect>
<rect x="60" y="43" width="1" height="1" fill="#9bbc0f"></rect>
<rect x="61" y="43" width="1" height="1" fill="#8bac0f"></rect>
<rect x="62" y="43" width="2" height="1" fill="#306230"></rect>
<rect x="0" y="44" width="2" height="1" fill="#306230"></rect>
<rect x="2" y="44" width="1" height="1" fill="#8bac0f"></rect>
<rect x="3" y="44" width="1" height="1" fill="#9bbc0f"></rect>
<rect x="4" y="44" width="11" height="1" fill="#0f380f"></rect>
<rect x="15" y="44" width="2" height="1" fill="#0a260a"></rect>
<rect x="17" y="44" width="1" height="1" fill="#306230"></rect>
<rect x="18" y="44" width="2" height="1" fill="#0a260a"></rect>
<rect x="20" y="44" width="9" height="1" fill="#c2331f"></rect>
<rect x="29" y="44" width="2" height="1" fill="#0a260a"></rect>
<rect x="31" y="44" width="2" height="1" fill="#306230"></rect>
<rect x="33" y="44" width="27" height="1" fill="#0f380f"></rect>
<rect x="60" y="44" width="1" height="1" fill="#9bbc0f"></rect>
<rect x="61" y="44" width="1" height="1" fill="#8bac0f"></rect>
<rect x="62" y="44" width="2" height="1" fill="#306230"></rect>
<rect x="0" y="45" width="2" height="1" fill="#306230"></rect>
<rect x="2" y="45" width="1" height="1" fill="#8bac0f"></rect>
<rect x="3" y="45" width="1" height="1" fill="#9bbc0f"></rect>
<rect x="4" y="45" width="11" height="1" fill="#0f380f"></rect>
<rect x="15" y="45" width="1" height="1" fill="#0a260a"></rect>
<rect x="16" y="45" width="3" height="1" fill="#306230"></rect>
<rect x="19" y="45" width="4" height="1" fill="#0a260a"></rect>
<rect x="23" y="45" width="3" height="1" fill="#c2331f"></rect>
<rect x="26" y="45" width="4" height="1" fill="#0a260a"></rect>
<rect x="30" y="45" width="1" height="1" fill="#0f380f"></rect>
<rect x="31" y="45" width="2" height="1" fill="#306230"></rect>
<rect x="33" y="45" width="27" height="1" fill="#0f380f"></rect>
<rect x="60" y="45" width="1" height="1" fill="#9bbc0f"></rect>
<rect x="61" y="45" width="1" height="1" fill="#8bac0f"></rect>
<rect x="62" y="45" width="2" height="1" fill="#306230"></rect>
<rect x="0" y="46" width="2" height="1" fill="#306230"></rect>
<rect x="2" y="46" width="1" height="1" fill="#8bac0f"></rect>
<rect x="3" y="46" width="1" height="1" fill="#9bbc0f"></rect>
<rect x="4" y="46" width="10" height="1" fill="#0f380f"></rect>
<rect x="14" y="46" width="2" height="1" fill="#0a260a"></rect>
<rect x="16" y="46" width="4" height="1" fill="#306230"></rect>
<rect x="20" y="46" width="7" height="1" fill="#0a260a"></rect>
<rect x="27" y="46" width="4" height="1" fill="#0f380f"></rect>
<rect x="31" y="46" width="2" height="1" fill="#306230"></rect>
<rect x="33" y="46" width="27" height="1" fill="#0f380f"></rect>
<rect x="60" y="46" width="1" height="1" fill="#9bbc0f"></rect>
<rect x="61" y="46" width="1" height="1" fill="#8bac0f"></rect>
<rect x="62" y="46" width="2" height="1" fill="#306230"></rect>
<rect x="0" y="47" width="2" height="1" fill="#306230"></rect>
<rect x="2" y="47" width="1" height="1" fill="#8bac0f"></rect>
<rect x="3" y="47" width="1" height="1" fill="#9bbc0f"></rect>
<rect x="4" y="47" width="9" height="1" fill="#0f380f"></rect>
<rect x="13" y="47" width="2" height="1" fill="#0a260a"></rect>
<rect x="15" y="47" width="4" height="1" fill="#306230"></rect>
<rect x="19" y="47" width="2" height="1" fill="#0a260a"></rect>
<rect x="21" y="47" width="39" height="1" fill="#0f380f"></rect>
<rect x="60" y="47" width="1" height="1" fill="#9bbc0f"></rect>
<rect x="61" y="47" width="1" height="1" fill="#8bac0f"></rect>
<rect x="62" y="47" width="2" height="1" fill="#306230"></rect>
<rect x="0" y="48" width="2" height="1" fill="#306230"></rect>
<rect x="2" y="48" width="1" height="1" fill="#8bac0f"></rect>
<rect x="3" y="48" width="1" height="1" fill="#9bbc0f"></rect>
<rect x="4" y="48" width="9" height="1" fill="#0f380f"></rect>
<rect x="13" y="48" width="1" height="1" fill="#0a260a"></rect>
<rect x="14" y="48" width="5" height="1" fill="#306230"></rect>
<rect x="19" y="48" width="1" height="1" fill="#0a260a"></rect>
<rect x="20" y="48" width="40" height="1" fill="#0f380f"></rect>
<rect x="60" y="48" width="1" height="1" fill="#9bbc0f"></rect>
<rect x="61" y="48" width="1" height="1" fill="#8bac0f"></rect>
<rect x="62" y="48" width="2" height="1" fill="#306230"></rect>
<rect x="0" y="49" width="2" height="1" fill="#306230"></rect>
<rect x="2" y="49" width="1" height="1" fill="#8bac0f"></rect>
<rect x="3" y="49" width="1" height="1" fill="#9bbc0f"></rect>
<rect x="4" y="49" width="8" height="1" fill="#0f380f"></rect>
<rect x="12" y="49" width="2" height="1" fill="#0a260a"></rect>
<rect x="14" y="49" width="4" height="1" fill="#306230"></rect>
<rect x="18" y="49" width="2" height="1" fill="#0a260a"></rect>
<rect x="20" y="49" width="40" height="1" fill="#0f380f"></rect>
<rect x="60" y="49" width="1" height="1" fill="#9bbc0f"></rect>
<rect x="61" y="49" width="1" height="1" fill="#8bac0f"></rect>
<rect x="62" y="49" width="2" height="1" fill="#306230"></rect>
<rect x="0" y="50" width="2" height="1" fill="#306230"></rect>
<rect x="2" y="50" width="1" height="1" fill="#8bac0f"></rect>
<rect x="3" y="50" width="1" height="1" fill="#9bbc0f"></rect>
<rect x="4" y="50" width="7" height="1" fill="#0f380f"></rect>
<rect x="11" y="50" width="2" height="1" fill="#0a260a"></rect>
<rect x="13" y="50" width="4" height="1" fill="#306230"></rect>
<rect x="17" y="50" width="2" height="1" fill="#0a260a"></rect>
<rect x="19" y="50" width="12" height="1" fill="#0f380f"></rect>
<rect x="31" y="50" width="2" height="1" fill="#306230"></rect>
<rect x="33" y="50" width="27" height="1" fill="#0f380f"></rect>
<rect x="60" y="50" width="1" height="1" fill="#9bbc0f"></rect>
<rect x="61" y="50" width="1" height="1" fill="#8bac0f"></rect>
<rect x="62" y="50" width="2" height="1" fill="#306230"></rect>
<rect x="0" y="51" width="2" height="1" fill="#306230"></rect>
<rect x="2" y="51" width="1" height="1" fill="#8bac0f"></rect>
<rect x="3" y="51" width="1" height="1" fill="#9bbc0f"></rect>
<rect x="4" y="51" width="7" height="1" fill="#0f380f"></rect>
<rect x="11" y="51" width="1" height="1" fill="#0a260a"></rect>
<rect x="12" y="51" width="5" height="1" fill="#306230"></rect>
<rect x="17" y="51" width="1" height="1" fill="#0a260a"></rect>
<rect x="18" y="51" width="13" height="1" fill="#0f380f"></rect>
<rect x="31" y="51" width="2" height="1" fill="#306230"></rect>
<rect x="33" y="51" width="27" height="1" fill="#0f380f"></rect>
<rect x="60" y="51" width="1" height="1" fill="#9bbc0f"></rect>
<rect x="61" y="51" width="1" height="1" fill="#8bac0f"></rect>
<rect x="62" y="51" width="2" height="1" fill="#306230"></rect>
<rect x="0" y="52" width="2" height="1" fill="#306230"></rect>
<rect x="2" y="52" width="1" height="1" fill="#8bac0f"></rect>
<rect x="3" y="52" width="1" height="1" fill="#9bbc0f"></rect>
<rect x="4" y="52" width="6" height="1" fill="#0f380f"></rect>
<rect x="10" y="52" width="2" height="1" fill="#0a260a"></rect>
<rect x="12" y="52" width="4" height="1" fill="#306230"></rect>
<rect x="16" y="52" width="2" height="1" fill="#0a260a"></rect>
<rect x="18" y="52" width="13" height="1" fill="#0f380f"></rect>
<rect x="31" y="52" width="2" height="1" fill="#306230"></rect>
<rect x="33" y="52" width="27" height="1" fill="#0f380f"></rect>
<rect x="60" y="52" width="1" height="1" fill="#9bbc0f"></rect>
<rect x="61" y="52" width="1" height="1" fill="#8bac0f"></rect>
<rect x="62" y="52" width="2" height="1" fill="#306230"></rect>
<rect x="0" y="53" width="2" height="1" fill="#306230"></rect>
<rect x="2" y="53" width="1" height="1" fill="#8bac0f"></rect>
<rect x="3" y="53" width="1" height="1" fill="#9bbc0f"></rect>
<rect x="4" y="53" width="6" height="1" fill="#0f380f"></rect>
<rect x="10" y="53" width="1" height="1" fill="#0a260a"></rect>
<rect x="11" y="53" width="4" height="1" fill="#306230"></rect>
<rect x="15" y="53" width="2" height="1" fill="#0a260a"></rect>
<rect x="17" y="53" width="43" height="1" fill="#0f380f"></rect>
<rect x="60" y="53" width="1" height="1" fill="#9bbc0f"></rect>
<rect x="61" y="53" width="1" height="1" fill="#8bac0f"></rect>
<rect x="62" y="53" width="2" height="1" fill="#306230"></rect>
<rect x="0" y="54" width="2" height="1" fill="#306230"></rect>
<rect x="2" y="54" width="1" height="1" fill="#8bac0f"></rect>
<rect x="3" y="54" width="1" height="1" fill="#9bbc0f"></rect>
<rect x="4" y="54" width="6" height="1" fill="#0f380f"></rect>
<rect x="10" y="54" width="1" height="1" fill="#0a260a"></rect>
<rect x="11" y="54" width="4" height="1" fill="#306230"></rect>
<rect x="15" y="54" width="1" height="1" fill="#0a260a"></rect>
<rect x="16" y="54" width="44" height="1" fill="#0f380f"></rect>
<rect x="60" y="54" width="1" height="1" fill="#9bbc0f"></rect>
<rect x="61" y="54" width="1" height="1" fill="#8bac0f"></rect>
<rect x="62" y="54" width="2" height="1" fill="#306230"></rect>
<rect x="0" y="55" width="2" height="1" fill="#306230"></rect>
<rect x="2" y="55" width="1" height="1" fill="#8bac0f"></rect>
<rect x="3" y="55" width="1" height="1" fill="#9bbc0f"></rect>
<rect x="4" y="55" width="6" height="1" fill="#0f380f"></rect>
<rect x="10" y="55" width="1" height="1" fill="#0a260a"></rect>
<rect x="11" y="55" width="3" height="1" fill="#306230"></rect>
<rect x="14" y="55" width="2" height="1" fill="#0a260a"></rect>
<rect x="16" y="55" width="44" height="1" fill="#0f380f"></rect>
<rect x="60" y="55" width="1" height="1" fill="#9bbc0f"></rect>
<rect x="61" y="55" width="1" height="1" fill="#8bac0f"></rect>
<rect x="62" y="55" width="2" height="1" fill="#306230"></rect>
<rect x="0" y="56" width="2" height="1" fill="#306230"></rect>
<rect x="2" y="56" width="1" height="1" fill="#8bac0f"></rect>
<rect x="3" y="56" width="1" height="1" fill="#9bbc0f"></rect>
<rect x="4" y="56" width="6" height="1" fill="#0f380f"></rect>
<rect x="10" y="56" width="5" height="1" fill="#0a260a"></rect>
<rect x="15" y="56" width="45" height="1" fill="#0f380f"></rect>
<rect x="60" y="56" width="1" height="1" fill="#9bbc0f"></rect>
<rect x="61" y="56" width="1" height="1" fill="#8bac0f"></rect>
<rect x="62" y="56" width="2" height="1" fill="#306230"></rect>
<rect x="0" y="57" width="2" height="1" fill="#306230"></rect>
<rect x="2" y="57" width="1" height="1" fill="#8bac0f"></rect>
<rect x="3" y="57" width="1" height="1" fill="#9bbc0f"></rect>
<rect x="4" y="57" width="56" height="1" fill="#0f380f"></rect>
<rect x="60" y="57" width="1" height="1" fill="#9bbc0f"></rect>
<rect x="61" y="57" width="1" height="1" fill="#8bac0f"></rect>
<rect x="62" y="57" width="2" height="1" fill="#306230"></rect>
<rect x="0" y="58" width="2" height="1" fill="#306230"></rect>
<rect x="2" y="58" width="1" height="1" fill="#8bac0f"></rect>
<rect x="3" y="58" width="1" height="1" fill="#9bbc0f"></rect>
<rect x="4" y="58" width="56" height="1" fill="#0f380f"></rect>
<rect x="60" y="58" width="1" height="1" fill="#9bbc0f"></rect>
<rect x="61" y="58" width="1" height="1" fill="#8bac0f"></rect>
<rect x="62" y="58" width="2" height="1" fill="#306230"></rect>
<rect x="0" y="59" width="2" height="1" fill="#306230"></rect>
<rect x="2" y="59" width="1" height="1" fill="#8bac0f"></rect>
<rect x="3" y="59" width="1" height="1" fill="#9bbc0f"></rect>
<rect x="4" y="59" width="56" height="1" fill="#0f380f"></rect>
<rect x="60" y="59" width="1" height="1" fill="#9bbc0f"></rect>
<rect x="61" y="59" width="1" height="1" fill="#8bac0f"></rect>
<rect x="62" y="59" width="2" height="1" fill="#306230"></rect>
<rect x="0" y="60" width="2" height="1" fill="#306230"></rect>
<rect x="2" y="60" width="1" height="1" fill="#8bac0f"></rect>
<rect x="3" y="60" width="58" height="1" fill="#9bbc0f"></rect>
<rect x="61" y="60" width="1" height="1" fill="#8bac0f"></rect>
<rect x="62" y="60" width="2" height="1" fill="#306230"></rect>
<rect x="0" y="61" width="2" height="1" fill="#306230"></rect>
<rect x="2" y="61" width="60" height="1" fill="#8bac0f"></rect>
<rect x="62" y="61" width="2" height="1" fill="#306230"></rect>
<rect x="0" y="62" width="64" height="1" fill="#306230"></rect>
<rect x="0" y="63" width="64" height="1" fill="#306230"></rect>
</svg>